<svg width="1600" height="900" viewBox="0 0 1600 900" fill="none" xmlns="http://www.w3.org/2000/svg">
  <defs>
    <linearGradient id="g1" x1="0" y1="0" x2="1600" y2="900" gradientUnits="userSpaceOnUse">
      <stop offset="0" stop-color="#0A0F1F"/>
      <stop offset="0.55" stop-color="#0E2A6D"/>
      <stop offset="1" stop-color="#14B8A6"/>
    </linearGradient>
    <radialGradient id="r1" cx="0" cy="0" r="1" gradientUnits="userSpaceOnUse" gradientTransform="translate(1180 240) rotate(133) scale(560 420)">
      <stop stop-color="#D4AF37" stop-opacity="0.55"/>
      <stop offset="1" stop-color="#D4AF37" stop-opacity="0"/>
    </radialGradient>
    <radialGradient id="r2" cx="0" cy="0" r="1" gradientUnits="userSpaceOnUse" gradientTransform="translate(500 680) rotate(25) scale(780 520)">
      <stop stop-color="#14B8A6" stop-opacity="0.35"/>
      <stop offset="1" stop-color="#14B8A6" stop-opacity="0"/>
    </radialGradient>
    <filter id="blur" x="-20%" y="-20%" width="140%" height="140%" filterUnits="objectBoundingBox">
      <feGaussianBlur stdDeviation="18"/>
    </filter>
    <linearGradient id="stroke" x1="0" y1="0" x2="1" y2="1">
      <stop stop-color="#D4AF37" stop-opacity="0.7"/>
      <stop offset="1" stop-color="#14B8A6" stop-opacity="0.55"/>
    </linearGradient>
  </defs>

  <rect width="1600" height="900" fill="url(#g1)"/>
  <rect width="1600" height="900" fill="url(#r1)"/>
  <rect width="1600" height="900" fill="url(#r2)"/>

  <g opacity="0.18" filter="url(#blur)">
    <path d="M220 610C330 460 520 380 720 410C930 440 1000 360 1120 250C1240 140 1420 150 1520 250" stroke="url(#stroke)" stroke-width="22" stroke-linecap="round"/>
    <path d="M120 720C270 560 480 520 660 560C860 604 990 520 1110 420C1230 320 1400 320 1500 410" stroke="url(#stroke)" stroke-width="18" stroke-linecap="round"/>
  </g>

  <g opacity="0.26">
    <circle cx="1320" cy="190" r="120" stroke="#F8F1E7" stroke-opacity="0.28" stroke-width="2"/>
    <circle cx="1320" cy="190" r="210" stroke="#F8F1E7" stroke-opacity="0.18" stroke-width="2"/>
    <circle cx="1320" cy="190" r="320" stroke="#F8F1E7" stroke-opacity="0.1" stroke-width="2"/>
  </g>

  <g opacity="0.22">
    <path d="M0 820H1600" stroke="#F8F1E7" stroke-opacity="0.16"/>
    <path d="M0 780H1600" stroke="#F8F1E7" stroke-opacity="0.10"/>
    <path d="M0 740H1600" stroke="#F8F1E7" stroke-opacity="0.07"/>
  </g>
</svg>

