<svg width="1200" height="900" viewBox="0 0 1200 900" fill="none" xmlns="http://www.w3.org/2000/svg">
  <defs>
    <linearGradient id="bg" x1="0" y1="0" x2="1200" y2="900" gradientUnits="userSpaceOnUse">
      <stop stop-color="#0A0F1F"/>
      <stop offset="0.6" stop-color="#0E2A6D"/>
      <stop offset="1" stop-color="#111418"/>
    </linearGradient>
    <linearGradient id="gold" x1="0" y1="0" x2="1" y2="1">
      <stop stop-color="#D4AF37"/>
      <stop offset="1" stop-color="#F8F1E7" stop-opacity="0.65"/>
    </linearGradient>
    <linearGradient id="teal" x1="0" y1="0" x2="1" y2="1">
      <stop stop-color="#14B8A6"/>
      <stop offset="1" stop-color="#0E2A6D" stop-opacity="0.6"/>
    </linearGradient>
    <filter id="shadow" x="-20%" y="-20%" width="140%" height="140%">
      <feDropShadow dx="0" dy="18" stdDeviation="22" flood-color="#000000" flood-opacity="0.35"/>
    </filter>
  </defs>

  <rect width="1200" height="900" fill="url(#bg)"/>

  <circle cx="940" cy="200" r="240" fill="#14B8A6" fill-opacity="0.10"/>
  <circle cx="240" cy="760" r="320" fill="#D4AF37" fill-opacity="0.09"/>

  <g filter="url(#shadow)">
    <rect x="210" y="170" width="780" height="560" rx="28" fill="#0B1220" stroke="url(#gold)" stroke-opacity="0.55"/>
    <rect x="250" y="220" width="340" height="90" rx="18" fill="#111418" stroke="#F8F1E7" stroke-opacity="0.12"/>
    <rect x="610" y="220" width="330" height="90" rx="18" fill="#111418" stroke="#F8F1E7" stroke-opacity="0.12"/>
    <rect x="250" y="340" width="690" height="54" rx="16" fill="#111418" stroke="#F8F1E7" stroke-opacity="0.10"/>
    <rect x="250" y="410" width="690" height="54" rx="16" fill="#111418" stroke="#F8F1E7" stroke-opacity="0.10"/>
    <rect x="250" y="480" width="690" height="54" rx="16" fill="#111418" stroke="#F8F1E7" stroke-opacity="0.10"/>

    <rect x="250" y="575" width="250" height="88" rx="20" fill="url(#teal)"/>
    <rect x="520" y="575" width="220" height="88" rx="20" fill="#111418" stroke="#F8F1E7" stroke-opacity="0.12"/>
    <rect x="760" y="575" width="180" height="88" rx="20" fill="#111418" stroke="#F8F1E7" stroke-opacity="0.12"/>

    <circle cx="300" cy="265" r="14" fill="#14B8A6"/>
    <circle cx="660" cy="265" r="14" fill="#D4AF37"/>
  </g>

  <g opacity="0.30">
    <path d="M90 140C170 90 260 80 340 115C430 155 520 150 610 105C710 55 860 70 980 150" stroke="#F8F1E7" stroke-opacity="0.18" stroke-width="3" stroke-linecap="round"/>
    <path d="M120 115C210 60 300 60 380 95C470 135 560 130 650 85C750 35 900 55 1030 130" stroke="#14B8A6" stroke-opacity="0.18" stroke-width="3" stroke-linecap="round"/>
  </g>
</svg>

